<svg version="1.1" id="Layer_1" xmlns="http://www.w3.org/2000/svg" xmlns:xlink="http://www.w3.org/1999/xlink" x="0px" y="0px"
	 width="100%" viewBox="0 0 192 192" enable-background="new 0 0 192 192" xml:space="preserve">
<path fill="#1B1717" opacity="1.000000" stroke="none" 
	d="
M90.000000,193.000000 
	C60.000000,193.000000 30.500004,193.000000 1.000004,193.000000 
	C1.000003,129.000000 1.000003,65.000008 1.000001,1.000013 
	C64.999992,1.000008 128.999985,1.000008 192.999969,1.000004 
	C192.999985,64.999985 192.999985,128.999969 193.000000,192.999969 
	C158.833328,193.000000 124.666664,193.000000 90.000000,193.000000 
M79.230309,65.830940 
	C74.566513,66.400505 71.795250,68.345375 70.424492,73.493408 
	C68.203247,81.835533 62.452221,88.046822 55.045132,92.453865 
	C51.808983,94.379295 48.214455,95.702385 44.391682,97.480919 
	C46.189236,103.959175 47.984138,110.427879 49.759312,116.825462 
	C74.552147,112.411499 99.073273,81.143600 92.944153,62.067509 
	C88.647095,63.248974 84.329033,64.436211 79.230309,65.830940 
M101.996582,78.475014 
	C106.424316,92.069496 114.531052,102.716278 127.508224,110.702904 
	C129.263062,104.281448 130.614990,98.516167 132.462830,92.914474 
	C133.399872,90.073853 132.724518,88.352379 130.737915,86.352280 
	C123.859818,79.427422 120.320206,71.032318 120.610382,61.200127 
	C120.716377,57.608387 121.150681,54.026337 121.463547,50.082767 
	C114.926712,48.348228 108.430824,46.624554 101.660233,44.827988 
	C98.028389,56.243614 98.435379,66.973190 101.996582,78.475014 
M123.483894,140.508209 
	C128.467148,135.750488 133.450409,130.992752 138.387314,126.279274 
	C118.169655,103.725914 83.640747,104.500992 68.487541,116.379532 
	C73.252296,120.900887 77.864388,125.432953 82.695976,129.717484 
	C83.556778,130.480820 85.459251,130.688843 86.659294,130.355682 
	C100.726349,126.450272 112.525787,130.620453 123.483894,140.508209 
z"/>
<path fill="#23B05D" opacity="1.000000" stroke="none" 
	d="
M79.620636,65.727196 
	C84.329033,64.436211 88.647095,63.248974 92.944153,62.067509 
	C99.073273,81.143600 74.552147,112.411499 49.759312,116.825462 
	C47.984138,110.427879 46.189236,103.959175 44.391682,97.480919 
	C48.214455,95.702385 51.808983,94.379295 55.045132,92.453865 
	C62.452221,88.046822 68.203247,81.835533 70.424492,73.493408 
	C71.795250,68.345375 74.566513,66.400505 79.620636,65.727196 
z"/>
<path fill="#23B05D" opacity="1.000000" stroke="none" 
	d="
M101.889542,78.088745 
	C98.435379,66.973190 98.028389,56.243614 101.660233,44.827988 
	C108.430824,46.624554 114.926712,48.348228 121.463547,50.082767 
	C121.150681,54.026337 120.716377,57.608387 120.610382,61.200127 
	C120.320206,71.032318 123.859818,79.427422 130.737915,86.352280 
	C132.724518,88.352379 133.399872,90.073853 132.462830,92.914474 
	C130.614990,98.516167 129.263062,104.281448 127.508224,110.702904 
	C114.531052,102.716278 106.424316,92.069496 101.889542,78.088745 
z"/>
<path fill="#23B05D" opacity="1.000000" stroke="none" 
	d="
M123.181671,140.363098 
	C112.525787,130.620453 100.726349,126.450272 86.659294,130.355682 
	C85.459251,130.688843 83.556778,130.480820 82.695976,129.717484 
	C77.864388,125.432953 73.252296,120.900887 68.487541,116.379532 
	C83.640747,104.500992 118.169655,103.725914 138.387314,126.279274 
	C133.450409,130.992752 128.467148,135.750488 123.181671,140.363098 
z"/>
</svg>